<?xml version="1.0" encoding="iso-8859-1"?>
<!-- Generator: Adobe Illustrator 19.0.0, SVG Export Plug-In . SVG Version: 6.00 Build 0)  -->
<svg version="1.1" xmlns="http://www.w3.org/2000/svg" xmlns:xlink="http://www.w3.org/1999/xlink" x="0px" y="0px"
	 viewBox="0 0 1024 1024" style="enable-background:new 0 0 1024 1024;" xml:space="preserve">
<g id="Layer_1">
	<g>
		<path d="M57.94,444.202c2.378-1.645,4.84-3.414,7.367-5.086c16.597-10.982,34.337-19.775,52.674-27.414
			c21.714-9.046,44.032-16.358,66.571-23.011c12.106-3.573,24.223-7.13,36.434-10.316c12.212-3.186,24.541-5.923,36.829-8.817
			c11.51-2.71,23.051-5.288,34.534-8.104c2.882-0.707,5.685-0.805,8.549-0.453c11.432,1.404,22.781,3.324,33.97,6.055
			c18.006,4.395,35.974,8.943,53.961,13.417c16.295,4.053,32.715,7.497,49.352,9.812c17.802,2.477,35.694,3.095,53.622,1.959
			c6.855-0.434,13.673-1.433,20.51-2.146c7.793-0.813,15.588-1.598,23.383-2.388c8.591-0.87,17.182-1.735,25.773-2.596
			c7.319-0.734,14.639-1.457,21.958-2.187c9.706-0.968,19.417-1.892,29.113-2.946c1.88-0.204,3.733-0.831,5.551-1.414
			c16.28-5.221,32.636-10.225,48.788-15.819c9.373-3.246,18.791-3.467,28.398-2.474c21.067,2.177,41.551,7.215,61.857,12.992
			c42.031,11.958,83.033,26.755,122.774,44.974c9.451,4.333,18.788,8.905,27.686,14.296c4.096,2.482,8.03,5.241,11.955,7.991
			c1.428,1.001,2.656,2.303,3.897,3.546c0.663,0.664,1.16,1.493,1.83,2.378c-0.603,1.036-1.107,2.007-1.707,2.915
			c-2.909,4.404-5.953,8.722-8.724,13.211c-1.513,2.451-3.429,3.982-6.156,4.917c-13.451,4.613-26.763,9.651-40.295,14.005
			c-34.409,11.072-69.423,19.855-104.816,27.179c-20.195,4.179-40.471,7.91-60.84,11.092c-14.686,2.294-29.427,4.254-44.172,6.144
			c-12.844,1.647-25.717,3.087-38.596,4.431c-8.905,0.929-17.84,1.598-26.769,2.273c-11.802,0.892-23.608,1.73-35.419,2.485
			c-7.183,0.459-14.376,0.82-21.57,1.05c-31.504,1.008-63.011,1.766-94.528,0.503c-11.828-0.474-23.667-0.739-35.485-1.382
			c-11.336-0.617-22.657-1.543-33.976-2.44c-8.448-0.669-16.896-1.388-25.32-2.299c-9.695-1.048-19.379-2.22-29.04-3.542
			c-10.926-1.496-21.851-3.04-32.721-4.889c-13.074-2.224-26.084-4.829-39.134-7.198c-10.22-1.856-20.444-3.706-30.695-5.38
			c-22.239-3.631-44.556-6.804-66.602-11.546c-15.641-3.364-31.093-7.383-45.984-13.341c-8.335-3.335-16.365-7.254-23.84-12.257
			c-6.829-4.57-12.875-9.962-17.957-16.468C58.333,452.589,56.757,449.151,57.94,444.202z M76.174,450.29
			c2.551,2.771,4.923,4.886,7.472,6.819c6.024,4.569,12.619,8.144,19.508,11.2c11.138,4.942,22.743,8.499,34.531,11.479
			c23.743,6.002,47.95,9.517,72.081,13.453c13.721,2.238,27.487,4.297,41.098,7.096c34.486,7.092,69.253,12.251,104.267,15.733
			c16.069,1.598,32.182,2.894,48.306,3.766c18.845,1.019,37.718,1.649,56.587,2.041c22.714,0.473,45.435,0.212,68.137-0.774
			c15.02-0.652,30.051-1.208,45.047-2.255c16.906-1.18,33.798-2.665,50.658-4.383c16.06-1.637,32.079-3.69,48.103-5.662
			c19.36-2.383,38.602-5.566,57.788-9.043c31.616-5.729,62.984-12.612,94.009-20.993c25.465-6.879,50.625-14.729,75.365-23.906
			c2.897-1.075,4.919-2.68,5.935-5.89c-1.373-0.914-2.622-1.899-4.002-2.637c-7.47-3.992-14.853-8.171-22.485-11.83
			c-28.142-13.495-57.242-24.619-86.806-34.552c-27.135-9.116-54.527-17.305-82.755-22.381c-8.506-1.53-17.05-2.703-25.733-2.588
			c-3.075,0.041-6.012,0.529-8.935,1.475c-17.787,5.753-35.598,11.435-53.387,17.181c-2.755,0.89-5.518,1.526-8.422,1.724
			c-4.146,0.283-8.278,0.774-12.414,1.196c-11.134,1.138-22.265,2.312-33.402,3.424c-11.138,1.112-22.284,2.13-33.421,3.254
			c-12.089,1.22-24.166,2.57-36.258,3.763c-17.099,1.687-34.203,1.297-51.258-0.49c-17.186-1.801-34.172-4.9-50.959-8.996
			c-17.85-4.355-35.652-8.908-53.489-13.318c-13.194-3.262-26.488-6.033-39.976-7.805c-2.56-0.336-5.028-0.245-7.586,0.392
			c-8.526,2.125-17.113,4.005-25.664,6.035c-21.762,5.166-43.599,10.018-65.084,16.311c-22.854,6.694-45.654,13.537-67.892,22.109
			c-18.675,7.199-36.845,15.462-53.987,25.864C79.663,448.005,78.216,448.979,76.174,450.29z"/>
		<path d="M717.718,721.535c0.457,3.73,2.787,4.75,5.187,5.818c23.07,10.27,46.125,20.576,69.184,30.871
			c8.027,3.584,16.059,7.156,24.077,10.759c1.158,0.52,2.291,1.122,3.356,1.81c0.306,0.198,0.507,0.855,0.441,1.249
			c-0.066,0.394-0.461,0.833-0.831,1.049c-0.386,0.226-0.91,0.251-1.38,0.294c-24.648,2.276-48.513,8.103-71.903,16.001
			c-41.302,13.945-79.764,33.641-116.068,57.652c-27.7,18.32-53.531,38.959-76.944,62.553
			c-14.681,14.795-28.149,30.607-39.735,47.97c-9.444,14.154-17.448,29.041-22.898,45.221c-0.201,0.596-0.534,1.148-0.911,1.94
			c-1.187,0.054-2.407,0.11-3.633,0.165c-0.301-0.601-0.675-1.003-0.681-1.411c-0.058-3.997-0.226-8.003-0.036-11.991
			c0.496-10.383,0.818-20.792,1.815-31.131c3.019-31.32,9.763-61.835,20.433-91.469c15.21-42.241,37.414-80.511,65.412-115.496
			c23.494-29.357,50.139-55.579,79.598-78.889c16.554-13.099,33.518-25.683,50.402-38.361c3.195-2.399,5.45-5.295,7.122-8.821
			c3.111-6.56,4.894-13.523,6.153-20.613c1.651-9.295,2.584-18.68,3.118-28.111c0.533-9.421,1.227-18.832,1.869-28.247
			c0.053-0.779,0.243-1.549,0.396-2.489c0.782-0.269,1.492-0.647,2.24-0.753c18.044-2.545,36.091-5.065,54.14-7.578
			c6.491-0.904,12.982-1.809,19.483-2.636c1.242-0.158,2.551-0.091,3.792,0.107c4.289,0.681,8.334,2.192,12.324,3.854
			c8.575,3.572,16.764,7.916,24.829,12.498c20.458,11.624,40.097,24.538,59.423,37.934c21.96,15.222,43.522,30.983,64.192,47.931
			c4.451,3.65,8.731,7.509,13.048,11.319c1.177,1.039,2.2,2.253,3.419,3.517c-0.568,0.42-0.88,0.835-1.251,0.896
			c-7.881,1.303-15.779,2.501-23.652,3.851c-13.704,2.35-27.392,4.791-41.087,7.191c-15.427,2.704-30.829,5.558-46.286,8.072
			c-23.939,3.893-46.836,11.522-69.648,19.361c-23.421,8.048-46.659,16.629-69.976,24.983
			C723.433,719.414,720.524,720.215,717.718,721.535z M735.686,560.845c-0.214,1.007-0.421,1.608-0.46,2.219
			c-0.358,5.586-0.688,11.173-1.024,16.761c-0.662,11.021-1.742,21.998-3.965,32.823c-1.741,8.478-4.199,16.728-8.401,24.38
			c-2.265,4.126-5.158,7.58-8.974,10.436c-14.085,10.539-28.037,21.257-42.055,31.886c-33.956,25.746-64.295,55.183-90.454,88.853
			c-38.968,50.158-64.781,106.193-75.234,169.051c-0.225,1.353-0.272,2.735-0.469,4.801c1.759-1.284,2.418-2.556,3.289-3.635
			c6.224-7.715,12.226-15.626,18.742-23.087c19.113-21.884,40.559-41.308,63.682-58.85c53.764-40.79,112.318-72.144,177.825-89.682
			c0.715-0.191,1.373-0.593,2.613-1.144c-1.793-0.9-3.01-1.571-4.274-2.138c-11.81-5.299-23.627-10.582-35.444-15.865
			c-5.835-2.609-11.704-5.146-17.504-7.832c-7.662-3.548-10.348-10.412-11.727-18.07c-0.11-0.61,0.014-1.279,0.113-1.908
			c0.952-6.009,4.09-10.358,9.861-12.521c4.936-1.85,9.948-3.496,14.914-5.266c23.326-8.314,46.583-16.828,69.99-24.908
			c24.485-8.452,49.307-15.637,75-19.662c22.729-3.561,45.353-7.799,68.018-11.766c1.178-0.206,2.31-0.67,3.998-1.173
			c-1.609-1.367-2.764-2.424-3.995-3.384c-21.326-16.622-43.263-32.397-65.731-47.437c-15.285-10.231-30.745-20.189-46.897-29.005
			c-6.305-3.441-12.77-6.624-19.315-9.585c-7.583-3.431-8.523-3.287-16.681-2.104c-13.128,1.903-26.275,3.668-39.412,5.506
			C746.498,559.269,741.289,560.038,735.686,560.845z"/>
		<path d="M493.312,837.375c-0.051,0.816,0.026,1.471-0.145,2.053c-6.867,23.437-13.756,46.868-20.576,70.075
			c-1.951,0.916-3.142-0.232-4.324-0.839c-13.932-7.156-27.959-14.144-41.701-21.65c-24.271-13.256-48.303-26.948-72.547-40.253
			c-22.989-12.617-46.425-24.35-70.685-34.369c-21.306-8.799-43.079-16.156-65.628-21.082c-4.213-0.92-8.464-1.665-12.687-2.542
			c-1.056-0.219-2.07-0.637-3.061-0.949c0.413-4.116,2.304-6.884,5.358-9.368c24.565-19.988,49.009-40.123,73.49-60.214
			c1.731-1.421,3.512-2.786,5.163-4.295c0.639-0.584,0.981-1.494,1.589-2.465c-0.947-0.497-1.587-1.008-2.31-1.187
			c-28.705-7.119-56.823-16.258-85.153-24.671c-20.682-6.141-41.469-11.882-62.597-16.302c-15.025-3.143-30.149-5.661-45.419-7.325
			c-13.843-1.508-27.713-2.452-41.634-2.688c-0.753-0.013-1.503-0.125-2.107-0.178c-0.636-1.214,0.117-1.758,0.593-2.322
			c3.201-3.786,6.404-7.571,9.671-11.3c1.048-1.196,2.237-2.285,3.453-3.316c40.261-34.134,80.533-68.256,120.807-102.375
			c1.212-1.027,2.465-2.004,3.812-3.096c27.154,4.253,54.274,8.497,81.351,12.862c0.41,1.024,0.753,1.738,0.988,2.485
			c6.706,21.274,16.1,41.382,26.582,61.003c18.2,34.068,39.402,66.21,62.677,97c20.09,26.576,41.628,51.901,65.455,75.229
			c13.047,12.773,26.713,24.825,41.612,35.422c8.09,5.755,16.493,10.997,25.474,15.272
			C491.658,836.394,492.454,836.897,493.312,837.375z M82.448,645.534c6.29,0.749,11.969,1.43,17.649,2.102
			c16.205,1.916,32.219,4.905,48.138,8.456c21.535,4.804,42.722,10.885,63.842,17.226c22.797,6.845,45.492,14.041,68.536,20.045
			c3.401,0.886,6.822,1.694,10.218,2.598c5.31,1.414,9.285,4.58,10.902,9.85c1.797,5.859,1.677,13.812-5.104,19.151
			c-3.015,2.374-5.938,4.866-8.906,7.301c-17.556,14.409-35.117,28.813-52.658,43.24c-1.059,0.871-2.457,1.494-2.94,3.38
			c1.514,0.516,2.994,0.922,4.469,1.368c8.103,2.449,16.255,4.751,24.283,7.428c25.988,8.665,50.84,20,75.224,32.399
			c25.658,13.046,50.604,27.395,75.747,41.386c15.224,8.471,30.59,16.688,45.914,24.98c1.486,0.804,2.935,1.83,4.649,2.033
			c1.481-3.162,10.707-33.335,12.519-40.926c0.177-0.742,0.127-1.539,0.192-2.436c-0.904-0.557-1.701-1.071-2.52-1.549
			c-7.47-4.355-14.61-9.204-21.52-14.393c-18.216-13.68-34.846-29.131-50.499-45.634c-44.136-46.534-81.729-97.91-113.213-153.757
			c-11.711-20.773-22.053-42.208-30.111-64.695c-0.209-0.583-0.525-1.128-0.918-1.96c-21.716-3.432-43.472-6.87-64.961-10.267
			C185.495,557.17,85.302,642.324,82.448,645.534z"/>
		<path d="M311.182,285.56c0-1.927-0.077-3.205,0.013-4.472c0.462-6.541,0.966-13.078,1.456-19.617
			c1.064-14.195,2.75-28.319,4.675-42.422c2.163-15.843,4.81-31.601,7.983-47.269c7.053-34.831,16.142-69.079,29.594-102.056
			c6.414-15.724,13.842-30.932,23.253-45.112c1.229-1.851,2.584-3.619,3.933-5.5c4.47,0,8.779,0.036,13.087-0.019
			c1.52-0.02,2.845,0.444,4.048,1.259c3.041,2.061,6.264,3.927,9.011,6.331c4.565,3.996,8.936,8.235,13.163,12.592
			c4.119,4.245,7.935,8.783,11.919,13.16c5.066,5.565,10.287,10.972,16.262,15.589c6.529,5.045,13.63,8.897,21.782,10.648
			c10.772,2.314,20.967,0.878,30.599-4.494c6.196-3.456,11.662-7.878,16.662-12.862c4.077-4.064,7.976-8.306,11.955-12.469
			c4.31-4.51,8.55-9.089,12.95-13.508c3.846-3.863,8.086-7.271,12.847-9.982c5.397-3.073,11.136-4.806,17.41-4.4
			c6.386,0.413,12.084,2.818,17.504,6.047c1.401,0.835,1.694,2.24,2.123,3.611c2.577,8.234,5.161,16.466,7.743,24.699
			c8.99,28.662,17.869,57.356,25.948,86.292c7.78,27.866,14.752,55.93,20.382,84.311c3.235,16.304,6.09,32.68,8.145,49.186
			c0.413,3.318,1.106,6.603,0.937,10.076c-1.533,1.067-3.34,1.1-5.013,1.43c-14.264,2.82-28.552,5.521-42.81,8.373
			c-18.967,3.794-37.973,7.358-57.16,9.851c-21.136,2.746-42.367,3.862-63.672,2.967c-8.626-0.362-17.219-1.21-25.78-2.415
			c-10.606-1.493-21.238-2.798-31.858-4.186c-8.717-1.139-17.434-2.284-26.152-3.422c-8.401-1.097-16.804-2.185-25.205-3.282
			c-11.254-1.469-22.507-2.949-33.761-4.413c-8.56-1.114-17.124-2.201-25.683-3.322C316.803,286.409,314.144,285.99,311.182,285.56z
			 M327.31,272.32c3.024,0.423,5.552,0.791,8.084,1.127c8.555,1.136,17.11,2.27,25.668,3.387c8.558,1.117,17.119,2.211,25.678,3.32
			c8.4,1.088,16.8,2.179,25.2,3.277c8.716,1.139,17.43,2.292,26.146,3.429c8.241,1.075,16.494,2.067,24.723,3.224
			c9.19,1.292,18.4,2.317,27.682,2.551c16.163,0.408,32.284-0.005,48.384-1.747c14.79-1.6,29.487-3.75,44.095-6.505
			c15.699-2.961,31.371-6.073,47.031-9.233c3.241-0.654,6.628-0.857,9.698-2.277c0.032-0.64,0.138-1.118,0.068-1.569
			c-1.196-7.738-2.29-15.495-3.65-23.204c-4.944-28.021-11.246-55.744-18.511-83.252c-10.936-41.408-23.872-82.219-36.582-123.1
			c-1.037-3.336-2.899-4.73-5.926-5.278c-2.548-0.461-5.14-0.61-7.536,0.542c-2.435,1.171-4.943,2.323-7.092,3.923
			c-2.938,2.189-5.724,4.637-8.291,7.253c-4.928,5.021-9.575,10.317-14.489,15.351c-4.689,4.803-9.44,9.56-14.402,14.076
			c-5.342,4.862-11.369,8.793-17.91,11.918c-10.416,4.977-21.381,6.446-32.725,4.892c-10.145-1.39-19.372-5.281-27.83-11.041
			c-5.308-3.615-10.231-7.703-14.695-12.297c-4.902-5.045-9.573-10.314-14.402-15.431c-4.608-4.883-9.206-9.782-13.979-14.501
			c-2.147-2.123-4.679-3.864-7.091-5.706c-1.482-1.132-3.134-1.541-5.131-0.458c-1.307,2.142-2.803,4.414-4.119,6.787
			c-2.558,4.611-5.131,9.219-7.494,13.931c-8.114,16.18-14.465,33.072-20.02,50.273c-7.521,23.29-13.364,47.017-18.117,71.011
			c-2.794,14.107-5.288,28.273-7.095,42.548c-0.984,7.768-2.035,15.529-2.901,23.311c-0.919,8.261-1.672,16.541-2.45,24.817
			C327.197,269.069,327.31,270.491,327.31,272.32z"/>
		<path d="M309.222,549.741c4.207,0.87,8.098,1.674,11.989,2.478c14.559,3.01,29.199,5.553,43.956,7.361
			c12.85,1.574,25.701,3.191,38.589,4.387c11.777,1.093,23.601,1.7,35.411,2.427c19.801,1.218,39.625,1.683,59.463,1.651
			c20.32-0.033,40.619-0.781,60.891-2.054c21.384-1.342,42.7-3.511,63.891-6.723c15.169-2.299,30.243-5.138,45.14-8.851
			c0.897-0.224,1.827-0.316,2.903-0.497c1.143,5.131,2.458,10.044,3.302,15.036c1.459,8.625-0.257,16.847-3.83,24.74
			c-2.801,6.188-6.723,11.606-11.392,16.499c-8.29,8.688-18.127,15.16-29.068,19.969c-14.734,6.476-30.09,9.576-46.239,8.267
			c-12.817-1.039-24.219-5.503-34.102-13.772c-5.174-4.33-9.649-9.333-14.01-14.451c-3.008-3.53-5.891-7.184-9.107-10.514
			c-3.211-3.325-6.552-6.598-10.214-9.4c-8.316-6.363-17.925-8.981-28.328-8.561c-6.034,0.243-11.561,2.274-16.662,5.489
			c-4.78,3.012-8.905,6.787-12.576,11.039c-3.238,3.751-6.29,7.662-9.447,11.484c-3.156,3.821-6.254,7.697-9.533,11.41
			c-4.74,5.369-10.494,9.194-17.308,11.637c-11.854,4.251-23.943,6.738-36.589,6.576c-32.259-0.412-59.881-19.538-71.448-49.711
			c-3.928-10.245-5.917-20.888-5.981-31.87C308.916,552.552,309.1,551.317,309.222,549.741z M448.455,582.347
			c-3.196-0.235-6.05-0.513-8.91-0.644c-19.65-0.898-39.232-2.595-58.777-4.799c-17.314-1.952-34.55-4.395-51.676-7.614
			c-0.875-0.164-1.807-0.021-2.843-0.021c-0.037,3.045,1.034,5.564,1.885,8.095c9.384,27.921,33.442,42.582,58.677,42.762
			c9.878,0.071,19.337-1.793,28.691-4.816c6.152-1.988,11.203-5.327,15.249-10.296c0.707-0.868,1.445-1.71,2.152-2.577
			c5.05-6.196,10.098-12.394,15.129-18.605C448.208,583.614,448.206,583.252,448.455,582.347z M535.732,582.604
			c7.381,8.302,13.942,15.709,20.545,23.078c0.955,1.066,2.084,1.983,3.18,2.913c5.835,4.958,12.44,8.338,20.002,9.784
			c6.005,1.148,12.022,1.42,18.123,0.83c17.015-1.645,32.19-7.765,45.499-18.47c4.638-3.731,8.606-8.095,11.761-13.176
			c2.741-4.414,4.486-9.17,5.029-14.343c0.164-1.56,0.563-3.171-0.615-4.954c-20.056,4.088-40.372,7.257-60.834,9.55
			C577.974,580.108,557.449,581.339,535.732,582.604z"/>
	</g>
</g>
<g id="Layer_2" style="display:none;">
	
		<polyline style="display:inline;fill:none;stroke:#000000;stroke-width:30;stroke-linecap:round;stroke-linejoin:round;stroke-miterlimit:10;" points="
		59.398,540.339 517.784,87.362 964.602,540.339 	"/>
	
		<polyline style="display:inline;fill:none;stroke:#000000;stroke-width:30;stroke-linecap:round;stroke-linejoin:round;stroke-miterlimit:10;" points="
		834.484,540.339 834.484,935.569 619.495,935.569 619.495,704.078 404.505,704.078 404.505,935.569 189.516,935.569 
		189.516,540.339 	"/>
	
		<polyline style="display:inline;fill:none;stroke:#000000;stroke-width:30;stroke-linecap:round;stroke-linejoin:round;stroke-miterlimit:10;" points="
		733.079,301 733.079,146.609 785.444,146.609 785.444,354.333 	"/>
</g>
</svg>
