<?xml version="1.0" encoding="iso-8859-1"?>
<!-- Generator: Adobe Illustrator 19.0.0, SVG Export Plug-In . SVG Version: 6.00 Build 0)  -->
<svg version="1.1" xmlns="http://www.w3.org/2000/svg" xmlns:xlink="http://www.w3.org/1999/xlink" x="0px" y="0px"
	 viewBox="0 0 1024 1024" style="enable-background:new 0 0 1024 1024;" xml:space="preserve">
<g id="Layer_1">
	<g>
		<path d="M905.732,481.826H758.335c-1.167-71.633-11.062-140.866-28.262-202.24h96.663c7.931,0,14.351-6.427,14.351-14.351
			c0-7.931-6.42-14.351-14.351-14.351H721.281c-15.341-46.239-35.047-87.105-58.461-119.89c-4.604-6.446-13.574-7.951-20.022-3.334
			c-6.446,4.597-7.941,13.566-3.334,20.012c20.311,28.451,37.671,63.524,51.592,103.212H542.175V118.27
			c0-7.922-6.429-14.351-14.351-14.351s-14.351,6.429-14.351,14.351v132.615H364.591c13.92-39.688,31.271-74.761,51.592-103.212
			c4.607-6.446,3.112-15.415-3.334-20.012c-6.458-4.607-15.418-3.112-20.022,3.334c-23.414,32.785-43.12,73.651-58.461,119.89
			H228.911c-7.931,0-14.351,6.42-14.351,14.351c0,7.924,6.42,14.351,14.351,14.351h96.663
			c-17.2,61.374-27.095,130.608-28.262,202.24H149.916c-7.922,0-14.351,6.429-14.351,14.351c0,7.922,6.429,14.351,14.351,14.351
			h147.396c1.167,71.633,11.062,140.866,28.262,202.241h-96.663c-7.931,0-14.351,6.427-14.351,14.351
			c0,7.931,6.42,14.351,14.351,14.351h105.455c15.341,46.248,35.055,87.115,58.468,119.909c2.803,3.923,7.214,6.015,11.698,6.015
			c2.887,0,5.793-0.868,8.326-2.672c6.446-4.616,7.941-13.576,3.334-20.022c-20.321-28.451-37.681-63.534-51.601-103.231h148.881
			v132.615c0,7.922,6.429,14.351,14.351,14.351s14.351-6.429,14.351-14.351V741.471h148.881
			c-13.92,39.697-31.28,74.771-51.601,103.221c-4.607,6.456-3.112,15.415,3.334,20.022c2.523,1.803,5.439,2.672,8.326,2.672
			c4.485,0,8.895-2.083,11.698-6.006c23.414-32.794,43.127-73.661,58.468-119.909h105.455c7.931,0,14.351-6.429,14.351-14.351
			c0-7.934-6.42-14.351-14.351-14.351h-96.663c17.2-61.384,27.095-130.608,28.262-202.241h147.396
			c7.922,0,14.351-6.429,14.351-14.351C920.082,488.246,913.653,481.826,905.732,481.826L905.732,481.826z M700.305,279.586
			c17.817,60.628,28.113,130.036,29.319,202.24H542.175v-202.24H700.305z M355.342,279.586h158.131v202.24H326.023
			C327.229,409.615,337.526,340.214,355.342,279.586L355.342,279.586z M355.342,712.769
			c-17.817-60.628-28.113-130.036-29.319-202.241h187.449v202.241H355.342z M700.305,712.769h-158.13V510.528h187.449
			C728.419,582.74,718.122,652.15,700.305,712.769L700.305,712.769z M700.305,712.769"/>
		<path d="M845.788,178.213C760.849,93.287,647.939,46.515,527.824,46.515S294.798,93.287,209.86,178.213
			C124.933,263.152,78.161,376.063,78.161,496.177c0,88.545,25.619,173.931,74.175,247.441L24.508,981.33
			c-1.71,5.157-0.373,10.847,3.475,14.688c3.841,3.848,9.522,5.185,14.688,3.466l237.711-127.819
			c73.51,48.556,158.905,74.175,247.441,74.175c120.115,0,233.026-46.772,317.964-131.699
			c84.926-84.938,131.699-197.849,131.699-317.964S930.714,263.152,845.788,178.213L845.788,178.213z M527.824,917.138
			c-85.134,0-167.148-25.301-237.192-73.166c-2.421-1.643-5.24-2.495-8.101-2.495c-1.521,0-3.054,0.244-4.54,0.73L60.816,963.176
			L181.794,746.01c1.421-4.26,0.765-8.931-1.765-12.641c-47.865-70.035-73.166-152.058-73.166-237.192
			c0-232.119,188.841-420.961,420.961-420.961s420.961,188.841,420.961,420.961S759.943,917.138,527.824,917.138L527.824,917.138z
			 M527.824,917.138"/>
	</g>
</g>
<g id="Layer_2">
</g>
</svg>
