<?xml version="1.0" encoding="iso-8859-1"?>
<!-- Generator: Adobe Illustrator 19.0.0, SVG Export Plug-In . SVG Version: 6.00 Build 0)  -->
<svg version="1.1" id="Layer_1" xmlns="http://www.w3.org/2000/svg" xmlns:xlink="http://www.w3.org/1999/xlink" x="0px" y="0px"
	 viewBox="-59 151.48 491.52 491.52" style="enable-background:new -59 151.48 491.52 491.52;" xml:space="preserve">
<g>
	<path d="M279.152,535.828H408.5v-332.61c0-5.103-4.137-9.239-9.239-9.239H-25.741c-5.103,0-9.239,4.137-9.239,9.239v323.371
		c0,5.103,4.136,9.239,9.239,9.239H94.368c5.103,0,9.239,4.137,9.239,9.239v27.718c0,5.103-4.136,9.239-9.239,9.239H75.89
		c-5.103,0-9.239,4.137-9.239,9.239s4.137,9.239,9.239,9.239h221.74c5.103,0,9.239-4.136,9.239-9.239s-4.137-9.239-9.239-9.239
		h-18.478c-5.103,0-9.239-4.137-9.239-9.239v-27.718C269.913,539.964,274.049,535.828,279.152,535.828z M-16.502,221.696
		c0-5.103,4.136-9.239,9.239-9.239h388.045c5.103,0,9.239,4.137,9.239,9.239v230.979c0,5.103-4.136,9.239-9.239,9.239H-7.263
		c-5.103,0-9.239-4.137-9.239-9.239V221.696z M251.434,572.784c0,5.103-4.136,9.239-9.239,9.239h-110.87
		c-5.103,0-9.239-4.137-9.239-9.239v-27.718c0-5.103,4.137-9.239,9.239-9.239h110.87c5.103,0,9.239,4.137,9.239,9.239V572.784z
		 M-7.263,517.349c-5.103,0-9.239-4.137-9.239-9.239v-18.478c0-5.103,4.136-9.239,9.239-9.239h388.045
		c5.103,0,9.239,4.137,9.239,9.239v18.478c0,5.103-4.136,9.239-9.239,9.239H-7.263z"/>
	<path d="M251.434,249.413h101.631c5.103,0,9.239-4.136,9.239-9.239v0c0-5.103-4.137-9.239-9.239-9.239H251.434
		c-5.103,0-9.239,4.137-9.239,9.239v0C242.195,245.277,246.332,249.413,251.434,249.413z"/>
	<path d="M186.76,249.413h27.718c5.103,0,9.239-4.136,9.239-9.239v0c0-5.103-4.137-9.239-9.239-9.239H186.76
		c-5.103,0-9.239,4.137-9.239,9.239v0C177.521,245.277,181.657,249.413,186.76,249.413z"/>
	<path d="M353.065,369.523h-92.392c-5.103,0-9.239,4.136-9.239,9.239s4.137,9.239,9.239,9.239h92.392
		c5.103,0,9.239-4.137,9.239-9.239S358.168,369.523,353.065,369.523z"/>
	<path d="M353.065,323.327h-73.913c-5.103,0-9.239,4.137-9.239,9.239s4.136,9.239,9.239,9.239h73.913
		c5.103,0,9.239-4.136,9.239-9.239S358.168,323.327,353.065,323.327z"/>
	<path d="M242.195,341.805c5.103,0,9.239-4.136,9.239-9.239s-4.136-9.239-9.239-9.239h-92.392c-5.103,0-9.239,4.137-9.239,9.239
		s4.137,9.239,9.239,9.239H242.195z"/>
	<path d="M177.521,295.609h18.478c5.103,0,9.239-4.137,9.239-9.239s-4.137-9.239-9.239-9.239h-18.478
		c-5.103,0-9.239,4.136-9.239,9.239S172.418,295.609,177.521,295.609z"/>
	<path d="M232.956,295.609h120.109c5.103,0,9.239-4.137,9.239-9.239s-4.137-9.239-9.239-9.239H232.956
		c-5.103,0-9.239,4.136-9.239,9.239S227.853,295.609,232.956,295.609z"/>
	<path d="M20.455,295.609h120.109c5.103,0,9.239-4.137,9.239-9.239s-4.137-9.239-9.239-9.239H20.455
		c-5.103,0-9.239,4.136-9.239,9.239S15.352,295.609,20.455,295.609z"/>
	<path d="M353.065,415.718H195.999c-5.103,0-9.239,4.137-9.239,9.239s4.136,9.239,9.239,9.239h157.066
		c5.103,0,9.239-4.136,9.239-9.239S358.168,415.718,353.065,415.718z"/>
	<polygon points="110.934,371.435 136.739,397.24 110.934,423.045 123.999,436.109 162.868,397.24 123.999,358.371 	"/>
	<polygon points="50.085,423.045 24.281,397.24 50.085,371.435 37.021,358.371 -1.849,397.24 37.021,436.109 	"/>
	
		<rect x="71.271" y="347.505" transform="matrix(-0.9286 -0.3711 0.3711 -0.9286 7.8507 796.0234)" width="18.478" height="99.502"/>
</g>
</svg>
